<?xml version="1.0" encoding="utf-8"?>
<!-- Generator: Adobe Illustrator 16.0.0, SVG Export Plug-In . SVG Version: 6.00 Build 0)  -->
<!DOCTYPE svg PUBLIC "-//W3C//DTD SVG 1.1//EN" "http://www.w3.org/Graphics/SVG/1.1/DTD/svg11.dtd">
<svg version="1.1" id="Livello_1" xmlns="http://www.w3.org/2000/svg" xmlns:xlink="http://www.w3.org/1999/xlink" x="0px" y="0px"
	 width="499.037px" height="100px" viewBox="0 0 499.037 100" enable-background="new 0 0 499.037 100" xml:space="preserve">
<g>
	<path fill="#A59076" stroke="#A59076" stroke-miterlimit="10" d="M50.082,2.676v7.997H13.66v31.394h28.787v8H13.66v39.632H5.662
		V2.676H50.082z"/>
	<path fill="#A59076" stroke="#A59076" stroke-miterlimit="10" d="M66.082,77.58c-8.687-8.646-13.03-19.09-13.03-31.333
		c0-12.241,4.343-22.705,13.03-31.391C74.726,6.209,85.17,1.887,97.413,1.887c12.242,0,22.707,4.322,31.391,12.969
		c8.647,8.686,12.97,19.15,12.97,31.391c0,12.244-4.323,22.688-12.97,31.333c-8.684,8.687-19.149,13.028-31.391,13.028
		C85.17,90.608,74.726,86.267,66.082,77.58z M71.718,20.553c-7.111,7.11-10.667,15.675-10.667,25.693
		c0,10.02,3.556,18.586,10.667,25.697c7.11,7.113,15.674,10.665,25.695,10.665c10.021,0,18.584-3.552,25.696-10.665
		c7.11-7.11,10.667-15.677,10.667-25.697c0-10.018-3.557-18.583-10.667-25.693c-7.111-7.113-15.675-10.666-25.696-10.666
		C87.392,9.887,78.828,13.44,71.718,20.553z"/>
	<path fill="#A59076" stroke="#A59076" stroke-miterlimit="10" d="M241.511,89.698V2.676h21.395
		c11.996,0,22.257,4.263,30.784,12.786c8.483,8.485,12.726,18.727,12.726,30.727c0,11.997-4.242,22.241-12.726,30.725
		c-8.527,8.526-18.788,12.785-30.784,12.785H241.511z M249.449,81.762h13.456c9.815,0,18.199-3.475,25.148-10.425
		c6.947-6.95,10.422-15.334,10.422-25.149c0-9.819-3.475-18.201-10.422-25.151c-6.949-6.948-15.333-10.423-25.148-10.423h-13.456
		V81.762z"/>
	<path fill="#C6AC88" d="M321.688,2.676v79.022h40.421v8h-48.421V2.676H321.688z"/>
	<path fill="#C6AC88" d="M429.982,2.676v87.022h-7.938V67.941H387.5l-13.756,21.757h-9.454l55.027-87.022H429.982z M392.532,59.944
		h29.513V13.342L392.532,59.944z"/>
	<path fill="#C6AC88" d="M440.891,89.698V2.676h26.181c6.503,0,12.062,2.303,16.667,6.908c4.643,4.646,6.967,10.223,6.967,16.726
		c0,7.231-2.768,13.233-8.301,17.999c4.119,1.938,7.411,4.807,9.878,8.606c2.505,3.918,3.755,8.2,3.755,12.846
		c0,6.626-2.323,12.263-6.969,16.911c-4.686,4.686-10.302,7.026-16.845,7.026H440.891z M448.891,42.004h18.181
		c4.282,0,7.96-1.534,11.028-4.605c3.071-3.07,4.608-6.767,4.608-11.09c0-4.322-1.537-7.999-4.608-11.028
		c-3.068-3.07-6.746-4.608-11.028-4.608h-18.181V42.004z M448.891,81.698h23.333c4.362,0,8.098-1.554,11.211-4.662
		c3.068-3.115,4.605-6.87,4.605-11.275c0-4.322-1.537-8.037-4.605-11.151c-3.113-3.068-6.849-4.604-11.211-4.604h-23.333V81.698z"/>
	<g>
		<g>
			<path fill="#A59076" d="M201.696,100c-0.709,0-1.382-0.403-1.697-1.091l-18.6-40.791c-0.427-0.936-0.015-2.043,0.92-2.47
				c0.942-0.427,2.046-0.015,2.47,0.925l18.605,40.794c0.426,0.936,0.01,2.04-0.926,2.464C202.215,99.948,201.957,100,201.696,100z"
				/>
			<g>
				<path fill="#A59076" d="M170.946,54.729c-0.706,0-1.384-0.403-1.694-1.088l-7.629-16.73c-0.427-0.94-0.015-2.043,0.921-2.47
					c0.939-0.432,2.042-0.016,2.469,0.925l7.629,16.728c0.426,0.938,0.017,2.046-0.922,2.473
					C171.468,54.678,171.205,54.729,170.946,54.729z"/>
				<path fill="#A59076" d="M179.313,50.921c-0.703,0-1.382-0.41-1.691-1.091l-7.628-16.729c-0.43-0.939-0.017-2.045,0.92-2.472
					c0.935-0.426,2.042-0.017,2.469,0.92l7.631,16.734c0.427,0.936,0.014,2.039-0.924,2.466
					C179.837,50.863,179.571,50.921,179.313,50.921z"/>
				<path fill="#A59076" d="M187.68,47.104c-0.703,0-1.383-0.404-1.695-1.083l-7.631-16.736c-0.423-0.936-0.008-2.041,0.925-2.467
					c0.936-0.431,2.041-0.016,2.473,0.92l7.625,16.731c0.428,0.938,0.014,2.045-0.925,2.471
					C188.207,47.052,187.94,47.104,187.68,47.104z"/>
			</g>
			<path fill="#A59076" d="M179.25,60.051c-1.292,0-2.584-0.229-3.827-0.685c-2.765-1.019-4.956-3.051-6.172-5.725
				c-0.427-0.937-0.016-2.046,0.92-2.47c0.936-0.427,2.044-0.017,2.47,0.922c0.801,1.76,2.247,3.1,4.069,3.772
				c1.833,0.672,3.824,0.598,5.608-0.218c3.681-1.678,5.325-5.997,3.667-9.638c-0.426-0.935-0.011-2.039,0.925-2.466
				c0.933-0.428,2.041-0.013,2.473,0.925c2.508,5.505,0.032,12.041-5.516,14.571C182.391,59.713,180.822,60.051,179.25,60.051z"/>
		</g>
		<g>
			<path fill="#A59076" d="M183.986,98.521c-0.259,0-0.524-0.052-0.774-0.166c-0.936-0.427-1.35-1.534-0.921-2.474l18.596-40.799
				c0.426-0.934,1.525-1.349,2.47-0.922c0.936,0.429,1.347,1.531,0.92,2.47l-18.595,40.8
				C185.367,98.113,184.695,98.521,183.986,98.521z"/>
			<path fill="#A59076" d="M214.734,53.244c-0.264,0-0.521-0.055-0.771-0.163c-0.938-0.432-1.353-1.536-0.925-2.473l4.138-9.079
				c0.429-0.936,1.528-1.349,2.47-0.92c0.935,0.426,1.351,1.533,0.923,2.469l-4.14,9.077
				C216.12,52.841,215.441,53.244,214.734,53.244z"/>
			<path fill="#A59076" d="M198,45.615c-0.265,0-0.525-0.053-0.777-0.169c-0.93-0.422-1.348-1.531-0.921-2.467l4.139-9.075
				c0.427-0.936,1.526-1.351,2.467-0.924c0.936,0.428,1.353,1.533,0.925,2.466l-4.138,9.082
				C199.378,45.21,198.703,45.615,198,45.615z"/>
			<path fill="#A59076" d="M206.414,58.557c-1.543,0-3.11-0.32-4.603-1.005c-2.686-1.228-4.737-3.412-5.782-6.16
				c-1.045-2.756-0.947-5.743,0.272-8.413c0.423-0.934,1.533-1.351,2.469-0.92c0.936,0.426,1.351,1.531,0.924,2.469
				c-0.806,1.754-0.864,3.728-0.179,5.545c0.691,1.819,2.055,3.276,3.841,4.087c3.678,1.677,8.026,0.089,9.682-3.552
				c0.427-0.934,1.526-1.351,2.469-0.921c0.936,0.429,1.348,1.533,0.922,2.471C214.594,56.181,210.598,58.557,206.414,58.557z"/>
			<path fill="#A59076" d="M218.581,44.8c-0.258,0-0.521-0.053-0.767-0.169c-0.939-0.427-1.351-1.533-0.924-2.466
				c1.654-3.643,0.01-7.964-3.669-9.64c-3.68-1.682-8.023-0.08-9.676,3.556c-0.426,0.93-1.531,1.342-2.471,0.92
				c-0.936-0.427-1.348-1.531-0.922-2.467c2.51-5.507,9.065-7.93,14.615-5.403c5.55,2.53,8.023,9.071,5.516,14.578
				C219.966,44.395,219.288,44.8,218.581,44.8z"/>
		</g>
	</g>
	<g>
		<path fill="#A59076" stroke="#A59076" stroke-miterlimit="10" d="M160.09,77.551c-8.689-8.647-13.032-19.092-13.032-31.333
			c0-12.24,4.342-22.704,13.032-31.391c8.644-8.646,19.089-12.969,31.331-12.969c12.242,0,22.705,4.323,31.391,12.969
			c8.647,8.687,12.969,19.15,12.969,31.391c0,12.241-4.322,22.686-12.969,31.333c-8.686,8.688-19.148,13.029-31.391,13.029
			C179.179,90.58,168.734,86.238,160.09,77.551z M165.727,20.525c-7.113,7.11-10.667,15.675-10.667,25.693
			c0,10.021,3.554,18.584,10.667,25.694c7.11,7.113,15.674,10.668,25.694,10.668c10.02,0,18.585-3.555,25.695-10.668
			c7.113-7.11,10.665-15.674,10.665-25.694c0-10.018-3.552-18.583-10.665-25.693c-7.11-7.113-15.675-10.667-25.695-10.667
			C181.4,9.858,172.836,13.412,165.727,20.525z"/>
	</g>
</g>
</svg>
