<?xml version="1.0" encoding="iso-8859-1"?>
<svg xmlns="http://www.w3.org/2000/svg" xmlns:xlink="http://www.w3.org/1999/xlink" version="1.1" viewBox="0 0 409.53 409.53" enable-background="new 0 0 409.53 409.53" width="512px" height="512px">
  <path d="m303.819,197.198l50.853-189.784c1.43-5.336 6.913-8.5 12.247-7.071 5.335,1.43 8.501,6.913 7.071,12.247l-50.853,189.787c6.728,3.512 12.547,8.662 16.881,15.043 3.103,4.569 1.915,10.788-2.653,13.892-1.721,1.168-3.676,1.729-5.61,1.729-3.201,0-6.347-1.534-8.281-4.382-3.547-5.224-8.834-8.993-14.885-10.614-10.757-2.884-22.235,1.392-28.556,10.638-3.117,4.561-9.341,5.729-13.898,2.613-4.56-3.117-5.729-9.34-2.613-13.898 9.172-13.421 24.528-20.865 40.297-20.2zm-188.913-24.923h73.73c3.322,0 6.129,2.807 6.129,6.128v44.637c0,5.522 4.478,10 10,10s10-4.478 10-10v-44.637c0-14.407-11.722-26.128-26.129-26.128h-73.73c-3.322,0-6.13-2.807-6.13-6.13 0-3.321 2.808-6.128 6.13-6.128h160.976c14.407,0 26.128-11.721 26.128-26.128s-11.721-26.128-26.128-26.128h-108.456c-3.321,0-6.127-2.807-6.127-6.129 0-5.522-4.478-10-10-10s-10,4.478-10,10c0,14.407 11.721,26.129 26.127,26.129h108.456c3.321,0 6.128,2.807 6.128,6.128s-2.807,6.128-6.128,6.128h-160.976c-14.408,0-26.13,11.721-26.13,26.128 0.001,14.408 11.722,26.13 26.13,26.13zm294.469,81.299c0,5.522-4.478,10-10,10h-47.231l-60.081,139.902c-1.577,3.673-5.19,6.054-9.188,6.054h-156.219c-3.998,0-7.611-2.381-9.188-6.054l-60.08-139.902h-47.234c-5.522,0-10-4.478-10-10s4.478-10 10-10h335.29c0.076,0 0.151,0 0.228,0h53.703c5.523,0 10,4.477 10,10zm-111.044,84.622c-16.648-5.98-32.131-14.464-46.218-25.326-29.757,22.881-66.41,35.393-104.122,35.393-11.446,0-22.796-1.133-33.919-3.377l19.173,44.645h143.04l22.046-51.335zm32.046-74.622h-251.223l24.998,58.21c14.178,4.3 28.911,6.479 43.839,6.479 35.757,0 70.436-12.739 97.65-35.872 3.734-3.174 9.219-3.176 12.953,0 14.234,12.099 30.229,21.289 47.645,27.39l24.138-56.207z" fill="#A3A3A3"/>
</svg>
