<?xml version="1.0" encoding="iso-8859-1"?>
<svg xmlns="http://www.w3.org/2000/svg" xmlns:xlink="http://www.w3.org/1999/xlink" version="1.1" viewBox="0 0 409.225 409.225" enable-background="new 0 0 409.225 409.225" width="512px" height="512px">
  <path d="m204.614,128.871c5.522,0 10,4.477 10,10v3.702c0,5.523-4.478,10-10,10-5.523,0-10-4.477-10-10v-3.702c0-5.523 4.477-10 10-10zm-194.612-108.871h62.982v72.216l-24.625,26.399c-3.768,4.038-3.548,10.366 0.491,14.133 4.038,3.768 10.365,3.548 14.133-0.491l20-21.439 19.999,21.439c3.769,4.039 10.096,4.258 14.134,0.491 4.039-3.768 4.258-10.095 0.491-14.134l-24.623-26.394v-72.22h101.63v72.217l-24.625,26.398c-3.767,4.039-3.547,10.366 0.491,14.134s10.367,3.547 14.134-0.491l19.999-21.439 19.998,21.439c1.97,2.111 4.639,3.179 7.314,3.179 2.443,0 4.892-0.89 6.819-2.688 4.038-3.767 4.259-10.095 0.491-14.134l-24.622-26.396v-72.219h101.632v72.217l-24.626,26.398c-3.767,4.038-3.548,10.366 0.491,14.133 4.038,3.768 10.365,3.547 14.134-0.491l19.999-21.439 19.999,21.439c3.769,4.039 10.098,4.257 14.134,0.491 4.038-3.767 4.258-10.095 0.491-14.133l-24.622-26.396v-72.219h62.977c5.522,0 10-4.477 10-10s-4.478-10-10-10h-389.22c-5.523,0-10,4.477-10,10s4.477,10 10,10zm306.244,118.871v3.702c0,5.523 4.478,10 10,10s10-4.477 10-10v-3.702c0-5.523-4.478-10-10-10s-10,4.477-10,10zm68.652,75.742v150.281h14.325c5.522,0 10,4.477 10,10s-4.478,10-10,10h-24.129c-0.131,0.003-0.262,0.003-0.393,0h-43.405l3.269,11.62c1.495,5.317-1.604,10.839-6.92,12.334-0.905,0.255-1.816,0.376-2.712,0.376-4.368,0-8.381-2.883-9.622-7.295l-4.79-17.035h-55.28l-4.791,17.035c-1.496,5.317-7.021,8.416-12.334,6.919-5.317-1.495-8.415-7.017-6.92-12.334l3.269-11.62h-59.705l3.268,11.62c1.495,5.317-1.603,10.839-6.919,12.334-5.317,1.496-10.839-1.603-12.334-6.919l-4.791-17.035h-55.281l-4.792,17.035c-1.496,5.317-7.019,8.416-12.334,6.919-5.316-1.495-8.414-7.018-6.919-12.334l3.268-11.62h-43.4c-0.131,0.003-0.262,0.003-0.393,0h-24.131c-5.523,0-10-4.477-10-10s4.477-10 10-10h14.328v-150.281h-14.328c-5.523,0-10-4.477-10-10s4.477-10 10-10h38.653v-14.328c0-5.523 4.477-10 10-10s10,4.477 10,10v14.328h25.264c-0.502-1.192-0.78-2.502-0.78-3.878 0-5.523 4.477-10 10-10h33.681c5.523,0 10,4.477 10,10 0,1.375-0.277,2.686-0.78,3.878h253.182c5.522,0 10,4.477 10,10s-4.478,10-10,10h-14.324zm-236.539,150.281l-19.281-68.554h-5.469l-19.281,68.554h44.031zm-32.554-88.554c0.148-0.002 0.298-0.002 0.446,0h20.182c0.151-0.004 0.301-0.003 0.452,0h22.601v-16.663h-66.283v16.663h22.602zm189.091,88.554l-19.279-68.554h-5.471l-19.28,68.554h44.03zm-32.556-88.554c0.148-0.003 0.301-0.004 0.451,0h20.181c0.151-0.003 0.301-0.002 0.45,0h22.601v-16.663h-66.283v16.663h22.6zm92.558-61.727h-320.568v150.281h39.222l19.281-68.554h-19.63c-5.523,0-10-4.477-10-10v-36.663c0-5.523 4.477-10 10-10h86.282c5.523,0 10,4.477 10,10v36.663c0,5.523-4.477,10-10,10h-19.631l19.281,68.554h70.954l19.281-68.554h-19.63c-5.522,0-10-4.477-10-10v-36.663c0-5.523 4.478-10 10-10h86.282c5.522,0 10,4.477 10,10v36.663c0,5.523-4.478,10-10,10h-19.631l19.28,68.554h39.226v-150.281zm-291.913-75.742v3.702c1.42109e-14,5.523 4.477,10 10,10s10-4.477 10-10v-3.702c0-5.523-4.477-10-10-10s-10,4.477-10,10z" fill="#a3a3a3"/>
</svg>
