<?xml version="1.0" encoding="iso-8859-1"?>
<svg xmlns="http://www.w3.org/2000/svg" xmlns:xlink="http://www.w3.org/1999/xlink" version="1.1" viewBox="0 0 409.221 409.221" enable-background="new 0 0 409.221 409.221" width="512px" height="512px">
  <path d="m185.337,259.102c2.064,3.265 2.064,7.425 0,10.688l-10.961,17.337c-1.902,3.01-5.146,4.657-8.461,4.657-1.828,0-3.676-0.5-5.335-1.549-4.668-2.951-6.06-9.128-3.108-13.796l7.583-11.993-16.957-26.815c-2.952-4.668-1.56-10.845 3.108-13.797 4.668-2.951 10.845-1.559 13.796,3.107l20.335,32.161zm139.657-118.292c-12.307-16.415-12.952-41.328-0.793-62.45 13.792-23.958 40.078-36.122 62.505-28.92 1.348,0.433 2.589,1.147 3.641,2.096 17.491,15.776 20.175,44.616 6.383,68.575-12.159,21.12-34.03,33.071-54.402,30.677l-7.021,12.196c-1.85,3.214-5.216,5.013-8.676,5.013-1.693,0-3.407-0.431-4.98-1.335-4.786-2.756-6.433-8.869-3.677-13.656l7.02-12.196zm11.817-20.527l15.424-26.795c1.85-3.214 5.216-5.013 8.676-5.013 1.693,0 3.407,0.431 4.98,1.335 4.786,2.756 6.433,8.869 3.677,13.656l-15.424,26.794c9.659-2.359 19.221-9.65 25.252-20.128 8.507-14.777 8.004-32.447-0.904-42.212-12.918-2.798-28.452,5.641-36.958,20.418-6.031,10.477-7.534,22.408-4.723,31.945zm-114.466,14.665c-13.793-23.96-11.108-52.8 6.383-68.575 1.051-0.948 2.292-1.662 3.64-2.096 22.427-7.2 48.713,4.962 62.505,28.919 12.158,21.12 11.512,46.036-0.792,62.45l7.021,12.195c2.755,4.787 1.109,10.9-3.677,13.656-1.572,0.904-3.288,1.335-4.98,1.335-3.46,0-6.825-1.799-8.676-5.013l-7.021-12.195c-20.378,2.399-42.245-9.555-54.403-30.676zm17.333-9.979c6.031,10.477 15.594,17.768 25.252,20.128l-15.424-26.794c-2.755-4.786-1.109-10.9 3.677-13.656 4.787-2.753 10.9-1.107 13.656,3.678l15.424,26.794c2.811-9.537 1.308-21.468-4.724-31.944-8.506-14.777-24.044-23.224-36.958-20.417-8.909,9.762-9.411,27.433-0.903,42.211zm169.543,192.148c0,5.522-4.477,10-10,10h-31.971c-0.114,0.002-0.229,0.002-0.342,0h-44.378l-31.254,51.672c-1.812,2.994-5.057,4.824-8.557,4.824h-156.217c-3.5,0-6.745-1.83-8.557-4.824l-31.254-51.672h-76.691c-5.523,0-10-4.478-10-10s4.477-10 10-10h33.402c-3.806-5.414-7.112-11.059-9.887-16.88-0.17-0.315-0.323-0.642-0.459-0.976-3.409-7.334-5.979-14.94-7.649-22.714-0.297-1.385-0.297-2.816 0-4.201 12.716-59.187 74.672-102.146 147.318-102.146 49.617,0.001 95.519,20.258 123.256,53.637 18.265-22.016 44.541-38.538 75.365-47.15 3.397-0.95 7.044-0.039 9.596,2.397 2.552,2.437 3.631,6.036 2.84,9.475-6.228,27.079-10.595,55.973-12.981,85.888 1.15,14.426 2.778,28.74 4.851,42.671h23.569c5.523-0.001 10,4.476 10,9.999zm-110.065,10h-189.091l22.075,36.496h144.94l22.076-36.496zm51.644-63.454c1.954-24.866 5.237-49.075 9.786-72.203-23.926,9.748-43.546,25.237-56.232,44.647-1.847,2.826-4.995,4.529-8.371,4.529s-6.524-1.703-8.371-4.529c-22.536-34.484-66.558-55.906-114.888-55.907-62.394,0-115.503,35.298-127.286,84.244 0.904,3.736 2.067,7.429 3.479,11.057h22.633c5.523,0 10,4.478 10,10s-4.477,10-10,10h-11.866c2.822,4.026 5.98,7.908 9.458,11.616h207.163c4.245-4.524 8.039-9.332 11.309-14.333 1.847-2.825 4.995-4.527 8.37-4.527 0,0 0,0 0.001,0 3.375,0 6.523,1.704 8.37,4.529 3.264,4.995 7.057,9.802 11.306,14.331h39.777c-1.973-13.71-3.528-27.751-4.638-41.888-0.041-0.521-0.041-1.045 0-1.566zm-259.342-24.596h-2.199c-5.523,0-10,4.478-10,10s4.477,10 10,10h2.199c5.523,0 10-4.478 10-10s-4.477-10-10-10zm-54.366-145.074h113.462c3.322,0 6.129,2.807 6.129,6.128 0,3.322-2.807,6.129-6.129,6.129h-64.228c-14.407,0-26.128,11.721-26.128,26.128v16.129c0,5.522 4.477,10 10,10s10-4.478 10-10v-16.129c0-3.321 2.806-6.128 6.128-6.128h64.228c14.408,0 26.129-11.722 26.129-26.129s-11.721-26.128-26.129-26.128h-113.462c-3.322,0-6.128-2.807-6.128-6.129 0-3.321 2.807-6.128 6.128-6.128h70.444c14.407,0 26.127-11.721 26.127-26.128 0-5.522-4.477-10-10-10s-10,4.478-10,10c0,3.321-2.806,6.128-6.127,6.128h-70.444c-14.407,0-26.128,11.721-26.128,26.128s11.721,26.129 26.128,26.129zm173.398,132.949c-2.952-4.666-9.128-6.059-13.797-3.107-4.667,2.952-6.059,9.129-3.107,13.797l16.957,26.815-7.583,11.992c-2.952,4.668-1.56,10.846 3.108,13.797 1.659,1.049 3.507,1.549 5.335,1.549 3.315,0 6.559-1.647 8.461-4.656l10.962-17.337c2.064-3.265 2.064-7.425 0-10.689l-20.336-32.161z" fill="#a3a3a3"/>
</svg>
