<?xml version="1.0" encoding="iso-8859-1"?>
<svg xmlns="http://www.w3.org/2000/svg" xmlns:xlink="http://www.w3.org/1999/xlink" version="1.1" viewBox="0 0 409.223 409.223" enable-background="new 0 0 409.223 409.223" width="512px" height="512px">
  <path d="m365.295,293.826c0,5.523-4.477,10-10,10h-33.778c-5.523,0-10-4.477-10-10s4.477-10 10-10h33.778c5.523,0 10,4.477 10,10zm-18.617,22.071h-16.546c-5.523,0-10,4.477-10,10s4.477,10 10,10h16.546c5.523,0 10-4.477 10-10s-4.477-10-10-10zm-145.06-72.275v3.701c0,5.523 4.477,10 10,10s10-4.477 10-10v-3.701c0-5.523-4.477-10-10-10s-10,4.477-10,10zm-104.292,70.192c5.523,0 10-4.477 10-10v-1.899c0-5.523-4.477-10-10-10s-10,4.477-10,10v1.899c0,5.523 4.477,10 10,10zm311.894-241.71c0.001,0.074 0.002,0.148 0.002,0.223v52.153c0,12.344-4.595,23.635-12.165,32.251v59.135c0,5.523-4.477,10-10,10s-10-4.477-10-10v-45.419c-5.229,1.912-10.874,2.956-16.756,2.956-15.858,0-29.978-7.584-38.923-19.315-8.945,11.731-23.064,19.315-38.921,19.315-15.872,0-30.001-7.596-38.946-19.343-5.566,7.311-13.14,13.014-21.893,16.279v26.632l24.623,26.395c3.767,4.039 3.547,10.366-0.491,14.134-4.038,3.767-10.366,3.548-14.134-0.491l-19.999-21.439-19.999,21.439c-3.768,4.038-10.096,4.258-14.134,0.491-4.039-3.768-4.258-10.095-0.491-14.134l24.625-26.399v-23.652c-14.637-0.875-27.564-8.217-35.952-19.199-5.633,7.376-13.314,13.11-22.185,16.346v218.758h58.136v-77.603h-29.452c-5.523,0-10-4.477-10-10s4.477-10 10-10h39.25c0.135-0.003 0.27-0.003 0.403,0h39.248c5.523,0 10,4.477 10,10s-4.477,10-10,10h-29.449v77.603h58.136v-135.96c0-5.523 4.477-10 10-10h97.303c5.523,0 10,4.477 10,10v135.96h2.165c5.523,0 10,4.477 10,10s-4.477,10-10,10h-265.537c-0.067,0.001-0.134,0.002-0.202,0.002s-0.134,0-0.202-0.002h-110.912c-0.135,0.003-0.269,0.003-0.403,0h-11.964c-5.523,0-10-4.477-10-10s4.477-10 10-10h2.166v-176.99c-0.001-0.065-0.002-0.131-0.002-0.196s0-0.131 0.002-0.196v-55.105c-7.57-8.617-12.166-19.908-12.166-32.252v-93.508c0-5.523 4.477-10 10-10h136.033c2.609-2.529 5.566-4.903 8.853-7.095 13.425-8.949 31.083-13.878 49.723-13.878s36.299,4.929 49.724,13.878c3.288,2.192 6.244,4.566 8.853,7.095h136.033 0.002c5.523,0 10,4.477 10,10 0,0.074-0.001,0.149-0.002,0.223v40.908zm-109.465,278.39h77.303v-87.233h-77.303v87.233zm0,38.727h77.303v-18.727h-77.303v18.727zm-279.754-326.894h113.626c-0.987-3.461-1.492-7.032-1.492-10.677 0-3.644 0.505-7.217 1.492-10.677h-113.626v21.354zm9.546,83.61c5.131,4.638 11.929,7.467 19.375,7.467 15.948,0 28.923-12.975 28.923-28.923v-42.154h-57.844v42.153c-3.55271e-15,7.993 3.258,15.238 8.517,20.478 0.365,0.302 0.71,0.628 1.029,0.979zm93.935,76.097h-91.316v167.187h91.316v-167.187zm0-48.74c-14.514-0.966-27.314-8.291-35.637-19.206-8.945,11.731-23.064,19.315-38.921,19.315-5.883,0-11.529-1.044-16.758-2.957v31.587h91.316v-28.739zm32.207-83.347c-0.269-0.174-0.536-0.349-0.802-0.526-3.287-2.192-6.243-4.565-8.852-7.094h-48.19v42.153c0,15.948 12.974,28.923 28.921,28.923 15.522,0 28.227-12.291 28.895-27.651-0.011-0.422-0.016-0.847-0.016-1.271 0-0.318 0.015-0.633 0.044-0.943v-33.591zm77.844,9.154c-9.007,2.75-18.821,4.198-28.923,4.198s-19.915-1.447-28.922-4.198v25.379c0,0.425-0.005,0.849-0.016,1.271 0.668,15.36 13.374,27.651 28.896,27.651 15.947,0 28.921-12.975 28.921-28.923 0-0.316 0.015-0.629 0.043-0.938v-24.44zm18.332-33.926c3.338-4.126 5.222-8.721 5.222-13.525 0-4.805-1.885-9.401-5.225-13.529-0.418-0.409-0.8-0.854-1.141-1.331-8.986-9.901-26.498-16.79-46.11-16.79s-37.124,6.889-46.11,16.791c-0.341,0.477-0.723,0.921-1.141,1.33-3.339,4.128-5.225,8.724-5.225,13.529s1.884,9.4 5.224,13.528c0.419,0.41 0.802,0.856 1.144,1.333 8.987,9.9 26.499,16.788 46.108,16.788 12.748,0 24.61-2.912 33.819-7.669 0.289-0.171 0.586-0.329 0.892-0.471 4.567-2.465 8.439-5.392 11.394-8.645 0.344-0.48 0.728-0.928 1.149-1.339zm59.515,17.152h-48.192c-2.609,2.528-5.564,4.902-8.852,7.094-0.265,0.177-0.532,0.352-0.801,0.526v34.534c0,15.948 12.973,28.923 28.919,28.923 15.952,0 28.926-12.975 28.926-28.923v-42.154zm77.841-20v-21.354h-113.627c0.987,3.46 1.492,7.033 1.492,10.677 0,3.645-0.505,7.216-1.492,10.677h113.627zm.002,20h-57.844v42.153c0,15.948 12.974,28.923 28.92,28.923 7.452,0 14.254-2.832 19.387-7.476 0.314-0.343 0.653-0.664 1.012-0.96 5.263-5.241 8.525-12.49 8.525-20.486v-42.154z" fill="#a3a3a3"/>
</svg>
