<?xml version="1.0" encoding="iso-8859-1"?>
<svg xmlns="http://www.w3.org/2000/svg" xmlns:xlink="http://www.w3.org/1999/xlink" version="1.1" viewBox="0 0 409.221 409.221" enable-background="new 0 0 409.221 409.221" width="512px" height="512px">
  <path d="m212.211,95.534c-39.313,0-71.297,31.984-71.297,71.298s31.983,71.297 71.297,71.297 71.297-31.983 71.297-71.297-31.984-71.298-71.297-71.298zm0,122.594c-28.285,0-51.297-23.012-51.297-51.297 0-28.286 23.012-51.298 51.297-51.298s51.297,23.012 51.297,51.298c-5.68434e-14,28.286-23.012,51.297-51.297,51.297zm101.82,38.467c3.941,3.868 4.002,10.199 0.134,14.142-1.958,1.995-4.547,2.996-7.139,2.996-2.527,0-5.056-0.952-7.003-2.862-0.347-0.34-0.7-0.655-1.051-0.938-4.304-3.461-4.987-9.755-1.526-14.06 3.46-4.303 9.754-4.988 14.06-1.526 0.86,0.693 1.71,1.448 2.525,2.248zm-101.82-124.09c-18.927,0-34.325,15.398-34.325,34.326 0,18.927 15.398,34.325 34.325,34.325 18.928,0 34.327-15.398 34.327-34.325 0-18.927-15.399-34.326-34.327-34.326zm0,48.652c-7.898,0-14.325-6.427-14.325-14.325 0-7.899 6.427-14.326 14.325-14.326 7.9,0 14.327,6.427 14.327,14.326 0,7.898-6.427,14.325-14.327,14.325zm-107.305-14.325c0-59.168 48.137-107.305 107.305-107.305 27.25,0 53.23,10.229 73.156,28.803 4.04,3.766 4.263,10.093 0.497,14.133-3.767,4.042-10.095,4.263-14.134,0.497-16.211-15.111-37.349-23.433-59.52-23.433-48.14,0-87.305,39.165-87.305,87.305s39.165,87.304 87.305,87.304 87.305-39.164 87.305-87.304v-16.129c0-14.407 11.721-26.128 26.128-26.128h49.753c3.321,0 6.128-2.807 6.128-6.129 0-3.321-2.807-6.128-6.128-6.128h-46.278c-14.407,0-26.128-11.722-26.128-26.129s11.721-26.128 26.128-26.128h17.735c3.321,0 6.128-2.807 6.128-6.128 0-5.522 4.478-10 10-10s10,4.478 10,10c0,14.407-11.721,26.128-26.128,26.128h-17.735c-3.321,0-6.128,2.807-6.128,6.128 0,3.322 2.807,6.129 6.128,6.129h46.278c14.407,0 26.128,11.721 26.128,26.128s-11.721,26.129-26.128,26.129h-49.753c-3.321,0-6.128,2.807-6.128,6.128v16.129c0,59.167-48.137,107.304-107.305,107.304s-107.304-48.137-107.304-107.304zm212.403,70.835c-4.671-2.947-6.067-9.123-3.12-13.794 2.948-4.67 9.122-6.069 13.794-3.12 14.703,9.278 25.495,23.54 30.387,40.156 1.56,5.298-1.471,10.857-6.769,12.417-0.942,0.277-1.894,0.41-2.828,0.41-4.322,0-8.307-2.823-9.589-7.179-3.518-11.949-11.287-22.209-21.875-28.89zm-256.002-79.069l4.893,14.339c1.418,4.157 5.303,6.773 9.463,6.773 1.071,0 2.16-0.174 3.23-0.539 5.227-1.783 8.019-7.466 6.234-12.693l-4.893-14.339c16.069-14.275 21.82-39.791 13.564-63.988-9.315-27.295-33.761-45.028-58.13-42.155-1.406,0.166-2.762,0.628-3.977,1.356-21.04,12.626-29.55,41.601-20.234,68.895 8.257,24.199 28.403,40.878 49.85,42.351zm-21.133-92.894c14.142-0.406 28.808,11.651 34.697,28.906 4.308,12.627 3.2,25.898-2.191,35.389l-10.885-31.9c-1.783-5.228-7.468-8.02-12.693-6.234-5.227,1.783-8.019,7.466-6.234,12.693l10.885,31.901c-10.068-4.216-19.059-14.043-23.367-26.672-5.89-17.254-1.662-35.715 9.788-44.083zm8.358,199.8c-0.87,4.836-5.083,8.23-9.83,8.23-0.588,0-1.184-0.052-1.783-0.16-5.436-0.979-9.049-6.178-8.07-11.613 5.677-31.544 25.018-58.684 53.063-74.46 4.812-2.709 10.91-1.001 13.618,3.813 2.708,4.813 1.001,10.91-3.813,13.618-22.828,12.842-38.568,34.919-43.185,60.572zm350.689,23.288h-389.221c-5.522,0-10,4.478-10,10s4.478,10 10,10h76.691l31.254,51.672c1.812,2.994 5.057,4.824 8.557,4.824h156.218c3.5,0 6.745-1.83 8.557-4.824l31.254-51.672h76.69c5.522,0 10-4.478 10-10s-4.478-10-10-10zm-122.14,56.496h-144.94l-22.075-36.496h189.091l-22.076,36.496zm-146.893-90.178c2.904,4.698 1.449,10.86-3.248,13.764-0.916,0.566-1.768,1.234-2.531,1.986-1.947,1.917-4.481,2.873-7.014,2.873-2.587,0-5.171-0.997-7.128-2.985-3.874-3.937-3.824-10.268 0.112-14.142 1.827-1.799 3.861-3.395 6.045-4.744 4.7-2.905 10.862-1.448 13.764,3.248zm-34.946-33.585c4.61-3.037 10.813-1.768 13.854,2.844 3.04,4.61 1.768,10.813-2.844,13.854-10.14,6.687-17.603,16.749-21.014,28.335-1.282,4.355-5.268,7.179-9.589,7.179-0.935,0-1.886-0.133-2.828-0.41-5.298-1.56-8.328-7.119-6.769-12.417 4.745-16.114 15.111-30.101 29.19-39.385zm280.648,43.978c-4.392-24.405-19.101-45.877-40.354-58.908-4.709-2.887-6.186-9.044-3.299-13.752 2.886-4.709 9.042-6.187 13.752-3.299 26.111,16.009 44.185,42.404 49.585,72.418 0.979,5.436-2.636,10.635-8.071,11.612-0.598,0.107-1.194,0.16-1.782,0.16-4.748,0.001-8.961-3.393-9.831-8.231z" fill="#A3A3A3"/>
</svg>
