<?xml version="1.0" encoding="iso-8859-1"?>
<svg xmlns="http://www.w3.org/2000/svg" xmlns:xlink="http://www.w3.org/1999/xlink" version="1.1" viewBox="0 0 423.727 423.727" enable-background="new 0 0 423.727 423.727" width="512px" height="512px">
  <path d="m283.328,303.595c0-35.851-26.646-65.596-61.174-70.473v-8.31c0-5.523-4.478-10-10-10-5.523,0-10,4.477-10,10v8.31c-34.526,4.877-61.173,34.622-61.173,70.473v3.765h-9.408c-5.523,0-10,4.477-10,10s4.477,10 10,10h161.163c5.522,0 10-4.477 10-10s-4.478-10-10-10h-9.408v-3.765zm-20,3.765h-102.347v-3.765c0-28.217 22.956-51.173 51.173-51.173 28.218,0 51.174,22.956 51.174,51.173v3.765zm87.769-257.315c-0.028-1.83-0.548-3.539-1.433-5.004-0.562-0.935-1.284-1.788-2.158-2.515-0.325-0.272-0.668-0.523-1.026-0.753-4.703-3.154-7.397-7.401-7.397-11.672 0-4.311 2.744-8.597 7.528-11.758 3.683-2.434 5.334-6.994 4.063-11.222-1.272-4.227-5.163-7.121-9.577-7.121h-258.468c-5.523,0-10,4.477-10,10v357.4c0,5.523 4.477,10 10,10h14.328v36.326c0,3.602 1.937,6.926 5.071,8.701 1.53,0.867 3.23,1.299 4.929,1.299 1.781,0 3.56-0.475 5.141-1.423l20.707-12.412 20.705,12.412c3.089,1.851 6.937,1.898 10.07,0.124 3.134-1.775 5.071-5.099 5.071-8.701v-36.326h172.446c5.522,0 10-4.477 10-10v-317.13c0.001-0.076 0.001-0.15 0-0.225zm-258.468-30.045h228.154c-1.119,3.238-1.701,6.632-1.701,10.101s0.583,6.863 1.702,10.102h-228.155v-20.203zm56.022,376.073l-10.705-6.417c-3.165-1.897-7.118-1.898-10.283,0l-10.708,6.418v-18.674h31.695v18.673zm182.448-38.673h-238.469v-297.197h238.469v297.197zm-210.105-224.903c0-14.407 11.721-26.128 26.127-26.128h70.444c3.322,0 6.129-2.807 6.129-6.128 0-5.523 4.478-10 10-10s10,4.477 10,10c0,14.407-11.722,26.128-26.129,26.128h-70.444c-3.321,0-6.127,2.806-6.127,6.128s2.806,6.128 6.127,6.128h113.463c14.407,0 26.128,11.721 26.128,26.128 0,14.408-11.721,26.129-26.128,26.129h-64.229c-3.322,0-6.128,2.807-6.128,6.128v16.128c0,5.523-4.477,10-10,10s-10-4.477-10-10v-16.128c0-14.407 11.721-26.128 26.128-26.128h64.229c3.321,0 6.128-2.807 6.128-6.129 0-3.322-2.807-6.128-6.128-6.128h-113.463c-14.407,0-26.127-11.721-26.127-26.128z" fill="#A3A3A3"/>
</svg>
