<?xml version="1.0" encoding="iso-8859-1"?>
<svg xmlns="http://www.w3.org/2000/svg" xmlns:xlink="http://www.w3.org/1999/xlink" version="1.1" viewBox="0 0 409.221 409.221" enable-background="new 0 0 409.221 409.221" width="512px" height="512px">
  <path d="m273.13,261.45c0-5.523 4.478-10 10-10h74.834c5.522,0 10,4.477 10,10s-4.478,10-10,10h-74.834c-5.523,0-10-4.477-10-10zm10-27.892h74.834c5.522,0 10-4.477 10-10s-4.478-10-10-10h-74.834c-5.522,0-10,4.477-10,10s4.477,10 10,10zm0-37.895h74.834c5.522,0 10-4.477 10-10s-4.478-10-10-10h-74.834c-5.522,0-10,4.477-10,10s4.477,10 10,10zm0-37.892h74.834c5.522,0 10-4.477 10-10s-4.478-10-10-10h-74.834c-5.522,0-10,4.477-10,10s4.477,10 10,10zm-210.722,56.84h19.125v46.842c0,5.523 4.478,10 10,10s10-4.477 10-10v-46.842h19.122c5.522,0 10-4.477 10-10v-56.842c0-5.523-4.478-10-10-10s-10,4.477-10,10v46.842h-9.122v-46.842c0-5.523-4.478-10-10-10s-10,4.477-10,10v46.842h-9.125v-46.842c0-5.523-4.478-10-10-10s-10,4.477-10,10v56.842c0,5.523 4.478,10 10,10zm336.813-151.208v282.416c0,10.753-8.748,19.501-19.501,19.501h-370.218c-10.753,0-19.502-8.749-19.502-19.502v-282.415c0-10.753 8.749-19.502 19.502-19.502h370.218c10.753,7.10543e-15 19.501,8.748 19.501,19.502zm-20,44.4h-369.221v193.617h147.35c5.522,0 10,4.477 10,10s-4.478,10-10,10h-147.35v23.9h369.221v-23.9h-147.347c-5.522,0-10-4.477-10-10s4.478-10 10-10h147.347v-193.617zm0-43.902h-369.221v23.902h369.221v-23.902zm-229.713,197.552v-113.684c0-5.523 4.478-10 10-10h48.998c5.522,0 10,4.477 10,10v80.624c0,5.523-4.478,10-10,10h-38.998v23.06c0,5.523-4.478,10-10,10s-10-4.477-10-10zm20-43.06h28.998v-60.624h-28.998v60.624zm27.805,83.026h-5.402c-5.522,0-10,4.477-10,10s4.478,10 10,10h5.402c5.522,0 10-4.477 10-10s-4.478-10-10-10z" fill="#A3A3A3"/>
</svg>
