<?xml version="1.0" encoding="UTF-8" standalone="no"?>
<svg
   xmlns:dc="http://purl.org/dc/elements/1.1/"
   xmlns:cc="http://creativecommons.org/ns#"
   xmlns:rdf="http://www.w3.org/1999/02/22-rdf-syntax-ns#"
   xmlns:svg="http://www.w3.org/2000/svg"
   xmlns="http://www.w3.org/2000/svg"
   xmlns:sodipodi="http://sodipodi.sourceforge.net/DTD/sodipodi-0.dtd"
   xmlns:inkscape="http://www.inkscape.org/namespaces/inkscape"
   xml:space="preserve"
   style="enable-background:new 0 0 522.394 522.393;"
   viewBox="0 0 522.394 522.393"
   height="512px"
   width="512px"
   y="0px"
   x="0px"
   id="Capa_1"
   version="1.1"
   inkscape:version="0.91 r13725"
   sodipodi:docname="icon-phone.svg"><sodipodi:namedview
     pagecolor="#ffffff"
     bordercolor="#666666"
     borderopacity="1"
     objecttolerance="10"
     gridtolerance="10"
     guidetolerance="10"
     inkscape:pageopacity="0"
     inkscape:pageshadow="2"
     inkscape:window-width="1709"
     inkscape:window-height="911"
     id="namedview23"
     showgrid="false"
     inkscape:zoom="1.3037281"
     inkscape:cx="227.7747"
     inkscape:cy="256"
     inkscape:window-x="0"
     inkscape:window-y="46"
     inkscape:window-maximized="0"
     inkscape:current-layer="Capa_1"
     showguides="true"
     inkscape:guide-bbox="true"><sodipodi:guide
       position="260.6066,550.16844"
       orientation="1,0"
       id="guide4249" /><sodipodi:guide
       position="-39.912723,261.38871"
       orientation="0,1"
       id="guide4251" /></sodipodi:namedview><metadata
     id="metadata41"><rdf:RDF><cc:Work
         rdf:about=""><dc:format>image/svg+xml</dc:format><dc:type
           rdf:resource="http://purl.org/dc/dcmitype/StillImage" /><dc:title></dc:title></cc:Work></rdf:RDF></metadata><defs
     id="defs39" /><g
     id="g7" /><g
     id="g9" /><g
     id="g11" /><g
     id="g13" /><g
     id="g15" /><g
     id="g17" /><g
     id="g19" /><g
     id="g21" /><g
     id="g23" /><g
     id="g25" /><g
     id="g27" /><g
     id="g29" /><g
     id="g31" /><g
     id="g33" /><g
     id="g35" /><circle
     r="261.10992"
     cy="261.1965"
     cx="261.19699"
     id="path4169"
     style="opacity:1;fill:#ceb28d;fill-opacity:1;stroke:none;stroke-width:0.17413709;stroke-linecap:butt;stroke-linejoin:miter;stroke-miterlimit:4;stroke-dasharray:none;stroke-opacity:1" /><g
     id="g4228"
     transform="matrix(0.40627271,0,0,0.40627275,157.89329,156.15748)"
     style="fill:#ffffff;fill-opacity:0.94117647"><g
       id="g4230"
       style="fill:#ffffff;fill-opacity:0.94117647"><path
         id="path4232"
         d="m 490.2,358.8 -44.7,-44.7 c -13.5,-13.5 -37.5,-12.5 -49.9,1 -29.1,32.3 -40.6,36.4 -43.7,37.5 -5.2,1 -10.4,1 -15.6,1 -41.6,0 -96.8,-31.2 -135.2,-79.1 -32.3,-39.5 -47.9,-82.2 -41.6,-114.4 1,-2.1 5.2,-14.6 37.5,-43.7 7.3,-6.2 11.4,-15.6 11.4,-25 0,-9.4 -4.2,-18.7 -10.4,-25 L 153.3,21.7 C 141.9,10.3 123.1,8.2 109.6,17.5 64.8,49.8 11.7,93.5 11.7,124.7 c 0,133.2 242.4,375.6 375.6,375.6 32.3,0 75.9,-53.1 107.2,-97.8 9.3,-13.5 7.2,-32.2 -4.3,-43.7 z m -11.4,33.3 c -38.5,54.1 -73.9,88.4 -90.5,88.4 -122.8,0 -355.8,-233 -355.8,-355.8 0,-17.7 33.3,-52 88.4,-90.5 5.3,-3.4 12,-3.2 17.7,3.1 L 183.3,82 c 6.4,6.8 3.2,17 -1,20.8 -35.4,32.3 -41.6,46.8 -43.7,55.1 -7.3,38.5 9.4,86.3 45.8,131.1 42.7,52 102,86.3 150.8,86.3 7.3,0 13.5,-1 19.8,-2.1 8.3,-2.1 22.9,-8.3 55.1,-43.7 5.2,-6.2 15.6,-6.2 20.8,-1 l 45.8,45.8 c 5.2,4.3 6.3,12.6 2.1,17.8 z"
         inkscape:connector-curvature="0"
         style="fill:#ffffff;fill-opacity:0.94117647" /><path
         id="path4234"
         d="m 409.1,108.1 c 34.3,34.3 48.9,83.2 40.6,130 l 19.8,3.1 C 478.9,187.1 461.2,132 423.7,93.5 383.1,52.9 324.9,36.3 268.7,48.8 l 4.2,19.8 c 48.8,-11.5 99.8,3.1 136.2,39.5 z"
         inkscape:connector-curvature="0"
         style="fill:#ffffff;fill-opacity:0.94117647" /><path
         id="path4236"
         d="m 393.5,230.9 c 5.2,-30.2 -4.2,-61.4 -26,-83.2 -22.9,-22.9 -55.1,-32.3 -87.4,-25 l 4.2,19.8 c 25,-5.2 51,2.1 68.7,19.8 17.7,17.7 25,41.6 20.8,65.5 l 19.7,3.1 z"
         inkscape:connector-curvature="0"
         style="fill:#ffffff;fill-opacity:0.94117647" /></g></g></svg>