<?xml version="1.0" encoding="UTF-8" standalone="no"?>
<svg
   xmlns:dc="http://purl.org/dc/elements/1.1/"
   xmlns:cc="http://creativecommons.org/ns#"
   xmlns:rdf="http://www.w3.org/1999/02/22-rdf-syntax-ns#"
   xmlns:svg="http://www.w3.org/2000/svg"
   xmlns="http://www.w3.org/2000/svg"
   xml:space="preserve"
   style="enable-background:new 0 0 522.394 522.393;"
   viewBox="0 0 522.394 522.393"
   height="512px"
   width="512px"
   y="0px"
   x="0px"
   id="Capa_1"
   version="1.1"><metadata
     id="metadata41"><rdf:RDF><cc:Work
         rdf:about=""><dc:format>image/svg+xml</dc:format><dc:type
           rdf:resource="http://purl.org/dc/dcmitype/StillImage" /><dc:title></dc:title></cc:Work></rdf:RDF></metadata><defs
     id="defs39" /><g
     id="g7" /><g
     id="g9" /><g
     id="g11" /><g
     id="g13" /><g
     id="g15" /><g
     id="g17" /><g
     id="g19" /><g
     id="g21" /><g
     id="g23" /><g
     id="g25" /><g
     id="g27" /><g
     id="g29" /><g
     id="g31" /><g
     id="g33" /><g
     id="g35" /><circle
     r="261.10992"
     cy="261.1965"
     cx="261.19699"
     id="path4169"
     style="opacity:1;fill:#f9f9f9;fill-opacity:1;stroke:none;stroke-width:0.17413709;stroke-linecap:butt;stroke-linejoin:miter;stroke-miterlimit:4;stroke-dasharray:none;stroke-opacity:1" /><g
     style="fill:#a3a3a3;fill-opacity:1"
     transform="matrix(0.49449305,0,0,0.49449305,130.42783,133.85834)"
     id="g3"><path
       style="fill:#a3a3a3;fill-opacity:1"
       id="path5"
       d="M 517.323,150.292 394.464,62.97 c -2.319,-1.646 -5.082,-2.469 -7.83,-2.473 -2.727,-0.004 -5.474,0.809 -7.783,2.426 L 260.428,145.936 145.388,63.019 c -2.342,-1.695 -5.149,-2.529 -7.936,-2.521 -2.71,0.008 -5.444,0.814 -7.743,2.426 L 5.136,150.245 C 1.916,152.498 0,156.184 0,160.116 l 0,289.723 c 0,4.499 2.501,8.619 6.493,10.698 1.748,0.911 3.658,1.36 5.562,1.36 2.431,0 4.853,-0.736 6.919,-2.187 l 118.422,-83.012 115.042,82.916 c 2.092,1.515 4.565,2.281 7.048,2.281 0.289,0 1.425,0 1.711,0 2.432,0 4.854,-0.736 6.92,-2.187 l 118.463,-83.041 116.774,82.995 c 2.081,1.479 4.525,2.231 6.983,2.231 1.89,0 3.787,-0.442 5.53,-1.345 4.006,-2.072 6.525,-6.202 6.525,-10.715 l 0,-289.72 c 0.004,-3.899 -1.886,-7.562 -5.069,-9.821 z m -392.752,205.957 -100.46,70.414 0,-260.277 100.459,-70.417 0.001,260.28 0,0 z m 122.861,70.039 -97.04,-69.938 0,-260.003 97.04,69.938 0,260.003 z m 126.281,-70.039 -100.46,70.414 0,-260.277 100.46,-70.417 0,260.28 z m 124.571,70.232 -98.75,-70.184 0,-260.144 98.75,70.185 0,260.143 z" /></g></svg>