<?xml version="1.0" encoding="UTF-8" standalone="no"?>
<svg
   xmlns:dc="http://purl.org/dc/elements/1.1/"
   xmlns:cc="http://creativecommons.org/ns#"
   xmlns:rdf="http://www.w3.org/1999/02/22-rdf-syntax-ns#"
   xmlns:svg="http://www.w3.org/2000/svg"
   xmlns="http://www.w3.org/2000/svg"
   xmlns:sodipodi="http://sodipodi.sourceforge.net/DTD/sodipodi-0.dtd"
   xmlns:inkscape="http://www.inkscape.org/namespaces/inkscape"
   version="1.1"
   viewBox="0 0 511 511"
   enable-background="new 0 0 511 511"
   id="svg142"
   inkscape:version="0.91 r13725"
   sodipodi:docname="icon-support-grey.svg">
  <metadata
     id="metadata150">
    <rdf:RDF>
      <cc:Work
         rdf:about="">
        <dc:format>image/svg+xml</dc:format>
        <dc:type
           rdf:resource="http://purl.org/dc/dcmitype/StillImage" />
        <dc:title></dc:title>
      </cc:Work>
    </rdf:RDF>
  </metadata>
  <defs
     id="defs148" />
  <sodipodi:namedview
     pagecolor="#ffffff"
     bordercolor="#666666"
     borderopacity="1"
     objecttolerance="10"
     gridtolerance="10"
     guidetolerance="10"
     inkscape:pageopacity="0"
     inkscape:pageshadow="2"
     inkscape:window-width="832"
     inkscape:window-height="480"
     id="namedview146"
     showgrid="false"
     inkscape:zoom="0.46183953"
     inkscape:cx="255.5"
     inkscape:cy="255.5"
     inkscape:window-x="20"
     inkscape:window-y="42"
     inkscape:window-maximized="0"
     inkscape:current-layer="svg142" />
  <path
     d="m503.5,248h-8.628c-1.869-61.161-26.557-118.389-70.02-161.852-43.463-43.463-100.691-68.151-161.852-70.02v-8.628c0-4.142-3.358-7.5-7.5-7.5s-7.5,3.358-7.5,7.5v8.628c-61.161,1.869-118.389,26.557-161.852,70.02-43.463,43.463-68.151,100.691-70.02,161.852h-8.628c-4.142,0-7.5,3.358-7.5,7.5s3.358,7.5 7.5,7.5h8.628c1.869,61.161 26.557,118.389 70.02,161.852 43.463,43.463 100.691,68.151 161.852,70.02v8.628c0,4.142 3.358,7.5 7.5,7.5s7.5-3.358 7.5-7.5v-8.628c61.161-1.869 118.389-26.557 161.852-70.02 43.463-43.463 68.151-100.691 70.02-161.852h8.628c4.142,0 7.5-3.358 7.5-7.5s-3.358-7.5-7.5-7.5zm-67.919-126.617l-64.108,64.107c-11.378-18.778-27.185-34.585-45.963-45.963l64.107-64.108c8.634,6.458 16.867,13.574 24.629,21.335 7.761,7.762 14.877,15.995 21.335,24.629zm-72.061,187.476c-0.398,0.574-0.703,1.19-0.922,1.831-11.493,22.213-29.695,40.415-51.909,51.909-0.642,0.219-1.26,0.526-1.836,0.925-16.092,7.98-34.206,12.476-53.353,12.476-19.148,0-37.263-4.497-53.356-12.479-0.574-0.398-1.191-0.704-1.832-0.923-22.214-11.493-40.416-29.696-51.909-51.909-0.219-0.642-0.526-1.259-0.924-1.833-7.982-16.093-12.479-34.208-12.479-53.356 0-19.146 4.496-37.259 12.476-53.351 0.399-0.576 0.707-1.195 0.926-1.838 11.494-22.214 29.696-40.416 51.91-51.909 0.641-0.219 1.257-0.525 1.831-0.923 16.094-7.982 34.209-12.479 53.357-12.479 19.147,0 37.261,4.496 53.353,12.477 0.575,0.399 1.193,0.706 1.836,0.925 22.214,11.493 40.416,29.696 51.909,51.909 0.219,0.642 0.526,1.26 0.925,1.835 7.98,16.093 12.477,34.207 12.477,53.354 0,19.149-4.497,37.265-12.48,53.359zm-108.02,171.141c-43.803,0-85.683-12.474-121.608-35.718l65.47-65.47c17.113,7.822 36.125,12.188 56.138,12.188 20.013,0 39.024-4.365 56.137-12.187l65.47,65.47c-35.925,23.243-77.804,35.717-121.607,35.717zm0-449c43.802,0 85.682,12.474 121.607,35.717l-65.47,65.471c-17.113-7.822-36.124-12.188-56.137-12.188-20.013,0-39.025,4.365-56.138,12.188l-65.47-65.47c35.925-23.244 77.805-35.718 121.608-35.718zm-158.746,65.755c7.761-7.761 15.994-14.876 24.627-21.334l64.107,64.108c-18.777,11.378-34.585,27.186-45.962,45.964l-64.108-64.107c6.459-8.636 13.575-16.87 21.336-24.631zm-30.038,37.139l65.471,65.47c-7.822,17.113-12.187,36.124-12.187,56.136 0,20.013 4.366,39.025 12.188,56.138l-65.47,65.47c-23.244-35.925-35.718-77.805-35.718-121.608 0-43.802 12.473-85.681 35.716-121.606zm8.705,255.725l64.107-64.108c11.378,18.777 27.184,34.583 45.961,45.961l-64.107,64.107c-8.633-6.458-16.866-13.573-24.627-21.334-7.761-7.76-14.876-15.993-21.334-24.626zm338.825,24.626c-7.761,7.761-15.995,14.876-24.628,21.335l-64.107-64.107c18.777-11.377 34.583-27.184 45.961-45.96l64.107,64.108c-6.458,8.632-13.573,16.864-21.333,24.624zm30.035-37.135l-65.469-65.47c7.822-17.114 12.188-36.126 12.188-56.14 0-20.013-4.365-39.024-12.187-56.137l65.471-65.47c23.242,35.925 35.716,77.805 35.716,121.607 0,43.804-12.474,85.685-35.719,121.61z"
     id="path144"
     style="fill:#a3a3a3;fill-opacity:1" />
</svg>
