<?xml version="1.0" encoding="UTF-8" standalone="no"?>
<svg
   xmlns:dc="http://purl.org/dc/elements/1.1/"
   xmlns:cc="http://creativecommons.org/ns#"
   xmlns:rdf="http://www.w3.org/1999/02/22-rdf-syntax-ns#"
   xmlns:svg="http://www.w3.org/2000/svg"
   xmlns="http://www.w3.org/2000/svg"
   xmlns:sodipodi="http://sodipodi.sourceforge.net/DTD/sodipodi-0.dtd"
   xmlns:inkscape="http://www.inkscape.org/namespaces/inkscape"
   xml:space="preserve"
   style="enable-background:new 0 0 522.394 522.393;"
   viewBox="0 0 522.394 522.393"
   height="512px"
   width="512px"
   y="0px"
   x="0px"
   id="Capa_1"
   version="1.1"
   inkscape:version="0.91 r13725"
   sodipodi:docname="icon-mail.svg"><sodipodi:namedview
     pagecolor="#ffffff"
     bordercolor="#666666"
     borderopacity="1"
     objecttolerance="10"
     gridtolerance="10"
     guidetolerance="10"
     inkscape:pageopacity="0"
     inkscape:pageshadow="2"
     inkscape:window-width="1709"
     inkscape:window-height="911"
     id="namedview23"
     showgrid="false"
     inkscape:zoom="0.99088542"
     inkscape:cx="206.72175"
     inkscape:cy="214.77966"
     inkscape:window-x="0"
     inkscape:window-y="46"
     inkscape:window-maximized="0"
     inkscape:current-layer="Capa_1"
     showguides="true"
     inkscape:guide-bbox="true"><sodipodi:guide
       position="261.197,354.16475"
       orientation="1,0"
       id="guide4234" /><sodipodi:guide
       position="703.90378,261.1965"
       orientation="0,1"
       id="guide4236" /></sodipodi:namedview><metadata
     id="metadata41"><rdf:RDF><cc:Work
         rdf:about=""><dc:format>image/svg+xml</dc:format><dc:type
           rdf:resource="http://purl.org/dc/dcmitype/StillImage" /><dc:title></dc:title></cc:Work></rdf:RDF></metadata><defs
     id="defs39" /><g
     id="g7" /><g
     id="g9" /><g
     id="g11" /><g
     id="g13" /><g
     id="g15" /><g
     id="g17" /><g
     id="g19" /><g
     id="g21" /><g
     id="g23" /><g
     id="g25" /><g
     id="g27" /><g
     id="g29" /><g
     id="g31" /><g
     id="g33" /><g
     id="g35" /><circle
     r="261.10992"
     cy="261.1965"
     cx="261.19699"
     id="path4169"
     style="opacity:1;fill:#ceb28d;fill-opacity:1;stroke:none;stroke-width:0.17413709;stroke-linecap:butt;stroke-linejoin:miter;stroke-miterlimit:4;stroke-dasharray:none;stroke-opacity:1" /><g
     id="g4210"
     transform="matrix(0.43443787,0,0,0.43443792,150.92464,148.4048)"
     style="fill:#ffffff;fill-opacity:1"><g
       id="g4212"
       style="fill:#ffffff;fill-opacity:1"><path
         id="path4214"
         d="m 494.2,488 c 0,0 0,-225.8 0,-301 0,-3.1 -3.9,-7 -7.7,-9.9 l -78.7,-57.1 0,-63.1 c 0,-6.2 -5.2,-10.4 -10.4,-10.4 l -89.7,0 L 262,13.2 c -3.1,-2.1 -8.3,-2.1 -11.5,0 l -45.7,33.3 -89.7,0 c -6.2,0 -10.4,5.2 -10.4,10.4 l 0,62.4 -79.7,57.9 c -4.7,2.9 -7.7,6.7 -7.7,9.9 0,75.7 0,303 0,303 0,5.9 4.7,10 9.6,10.4 0.3,0 0.5,0 0.8,0 l 456,0 c 6.7,-0.1 10.5,-5.3 10.5,-12.5 z m -19.8,-282.3 0,263.6 L 302.3,331.5 474.4,205.7 Z m -7.7,-18.3 -58.9,42.9 0,-86.2 58.9,43.3 z M 255.8,32.9 l 18.3,13.5 -36.7,0 18.4,-13.5 z m 131.2,34.4 0,178.2 -131.2,95.6 -131.2,-95.6 0,-178.2 262.4,0 z M 37.2,205.7 209.3,331.5 37.2,470.1 l 0,-264.4 z m 67.6,25.4 -60.4,-44 60.4,-43.9 0,87.9 z M 55.9,480.6 226,343.7 l 23.5,17.2 c 4.5,3.4 7.9,3.4 12.5,0 l 23.5,-17.2 171.1,136.9 -400.7,0 z"
         inkscape:connector-curvature="0"
         style="fill:#ffffff;fill-opacity:1" /><rect
         id="rect4216"
         height="19.799999"
         y="118.3"
         x="186.10001"
         width="140.5"
         style="fill:#ffffff;fill-opacity:1" /><rect
         id="rect4218"
         height="19.799999"
         y="181.8"
         x="186.10001"
         width="140.5"
         style="fill:#ffffff;fill-opacity:1" /><rect
         id="rect4220"
         height="19.799999"
         y="245.3"
         x="186.10001"
         width="140.5"
         style="fill:#ffffff;fill-opacity:1" /></g></g></svg>