<?xml version="1.0" encoding="UTF-8" standalone="no"?>
<!-- Generator: Adobe Illustrator 19.0.0, SVG Export Plug-In . SVG Version: 6.00 Build 0)  -->

<svg
   xmlns:dc="http://purl.org/dc/elements/1.1/"
   xmlns:cc="http://creativecommons.org/ns#"
   xmlns:rdf="http://www.w3.org/1999/02/22-rdf-syntax-ns#"
   xmlns:svg="http://www.w3.org/2000/svg"
   xmlns="http://www.w3.org/2000/svg"
   xmlns:sodipodi="http://sodipodi.sourceforge.net/DTD/sodipodi-0.dtd"
   xmlns:inkscape="http://www.inkscape.org/namespaces/inkscape"
   version="1.1"
   id="Capa_1"
   x="0px"
   y="0px"
   viewBox="0 0 469.5 469.5"
   style="enable-background:new 0 0 469.5 469.5;"
   xml:space="preserve"
   inkscape:version="0.91 r13725"
   sodipodi:docname="icon-certificate-grey-green.svg"><metadata
     id="metadata53"><rdf:RDF><cc:Work
         rdf:about=""><dc:format>image/svg+xml</dc:format><dc:type
           rdf:resource="http://purl.org/dc/dcmitype/StillImage" /><dc:title></dc:title></cc:Work></rdf:RDF></metadata><defs
     id="defs51" /><sodipodi:namedview
     pagecolor="#ffffff"
     bordercolor="#666666"
     borderopacity="1"
     objecttolerance="10"
     gridtolerance="10"
     guidetolerance="10"
     inkscape:pageopacity="0"
     inkscape:pageshadow="2"
     inkscape:window-width="1607"
     inkscape:window-height="923"
     id="namedview49"
     showgrid="false"
     inkscape:zoom="1.0063974"
     inkscape:cx="211.15042"
     inkscape:cy="160.33562"
     inkscape:window-x="0"
     inkscape:window-y="69"
     inkscape:window-maximized="0"
     inkscape:current-layer="g3" /><g
     id="g3"
     style="fill:#a3a3a3;fill-opacity:1"><path
       d="M416.25,97c4.142,0,7.5-3.358,7.5-7.5V36.95C423.75,16.576,406.852,0,386.081,0H83.15c-20.972,0-37.4,16.23-37.4,36.95   v335.1c0,20.926,16.777,37.95,37.4,37.95h73.6v52c0,2.599,1.346,5.013,3.557,6.38s4.973,1.491,7.297,0.328l36.646-18.323   l36.646,18.323c1.059,0.529,2.208,0.792,3.354,0.792c1.372,0,2.739-0.376,3.943-1.12c2.211-1.367,3.557-3.781,3.557-6.38v-52.013   l134.33-0.237c20.772,0,37.67-16.912,37.67-37.7V319.5c0-4.142-3.358-7.5-7.5-7.5h-52.5V97H416.25z M408.75,36.95V82h-45V37.45   c0-12.33,10.023-22.398,22.345-22.45C398.589,15.008,408.75,24.852,408.75,36.95z M240.718,340.384   c-1.05,0.562-1.948,1.367-2.625,2.339c-9.411,7.825-21.239,12.127-33.493,12.127c-13.013,0-25.507-4.817-35.176-13.56   c-11.009-9.967-17.324-24.161-17.324-38.94c0-28.949,23.551-52.5,52.5-52.5s52.5,23.551,52.5,52.5   C257.1,316.731,251.146,330.475,240.718,340.384z M236.75,449.865l-29.146-14.573c-2.111-1.056-4.597-1.056-6.708,0l-29.146,14.573   v-88.566c9.971,5.571,21.248,8.551,32.85,8.551c11.314,0,22.348-2.844,32.15-8.168V449.865z M251.75,350.601   c12.972-12.679,20.35-30.072,20.35-48.251c0-37.22-30.28-67.5-67.5-67.5s-67.5,30.28-67.5,67.5c0,17.806,7.12,34.943,19.65,47.569   V395h-73.6c-12.352,0-22.4-10.295-22.4-22.95V36.95c0-12.309,9.839-21.95,22.4-21.95h273.108c-4.71,6.264-7.508,14.041-7.508,22.45   v334.6c0,8.535,2.846,16.42,7.626,22.752l-104.626,0.185V350.601z M408.75,327v45.05c0,12.298-10.369,22.688-22.662,22.7   c-12.319-0.056-22.338-10.234-22.338-22.7V327H408.75z"
       id="path5"
       style="fill:#a3a3a3;fill-opacity:1" /><path
       d="M204.6,264.85c-20.678,0-37.5,16.822-37.5,37.5s16.822,37.5,37.5,37.5s37.5-16.822,37.5-37.5S225.278,264.85,204.6,264.85z    M204.6,324.85c-12.407,0-22.5-10.093-22.5-22.5s10.093-22.5,22.5-22.5s22.5,10.093,22.5,22.5S217.007,324.85,204.6,324.85z"
       id="path7"
       style="fill:#68b78c;fill-opacity:1" /><path
       d="M304.75,152h-200c-4.142,0-7.5,3.358-7.5,7.5s3.358,7.5,7.5,7.5h200c4.142,0,7.5-3.358,7.5-7.5S308.892,152,304.75,152z"
       id="path9"
       style="fill:#a3a3a3;fill-opacity:1" /><path
       d="M274.75,182h-140c-4.142,0-7.5,3.358-7.5,7.5s3.358,7.5,7.5,7.5h140c4.142,0,7.5-3.358,7.5-7.5S278.892,182,274.75,182z"
       id="path11"
       style="fill:#a3a3a3;fill-opacity:1" /><path
       d="M304.75,122h-30c-4.142,0-7.5,3.358-7.5,7.5s3.358,7.5,7.5,7.5h30c4.142,0,7.5-3.358,7.5-7.5S308.892,122,304.75,122z"
       id="path13"
       style="fill:#a3a3a3;fill-opacity:1" /><path
       d="M104.75,137h140c4.142,0,7.5-3.358,7.5-7.5s-3.358-7.5-7.5-7.5h-140c-4.142,0-7.5,3.358-7.5,7.5S100.608,137,104.75,137z"
       id="path15"
       style="fill:#a3a3a3;fill-opacity:1" /><path
       d="M129.995,95.589c1.369,1.065,2.991,1.581,4.6,1.581c2.235,0,4.446-0.995,5.925-2.895l17.419-22.39l17.411,22.388   c1.421,1.827,3.605,2.896,5.919,2.896c2.315,0,4.5-1.068,5.92-2.895l17.419-22.39l17.411,22.388   c1.421,1.827,3.606,2.896,5.92,2.896s4.5-1.069,5.92-2.896l17.41-22.387l17.41,22.387c2.542,3.27,7.254,3.86,10.524,1.316   c3.27-2.543,3.859-7.255,1.316-10.524l-23.33-30c-1.421-1.827-3.606-2.896-5.92-2.896s-4.5,1.069-5.92,2.896l-17.41,22.387   l-17.41-22.387c-1.421-1.827-3.605-2.896-5.919-2.896c-2.315,0-4.5,1.068-5.92,2.895l-17.419,22.39L163.86,55.066   c-1.421-1.827-3.605-2.896-5.919-2.896c-2.315,0-4.5,1.068-5.92,2.895l-23.34,30C126.137,88.334,126.726,93.046,129.995,95.589z"
       id="path17"
       style="fill:#a3a3a3;fill-opacity:1" /><path
       style="fill:#68b78c;fill-opacity:1"
       d="m 204.56292,234.75985 c -37.22,0 -67.5,30.28 -67.5,67.5 0,17.806 7.11843,34.94236 19.64843,47.56836 l 0,45.08203 c 0,15 0,0 0,15 l 0,52 c 0,2.59901 1.3476,5.01191 3.5586,6.37891 2.211,1.367 4.97287,1.49113 7.29687,0.32813 l 36.64453,-18.32227 36.64649,18.32227 c 1.059,0.529 2.20751,0.79297 3.35351,0.79296 1.372,0 2.73936,-0.37709 3.94336,-1.12109 2.211,-1.367 3.55664,-3.7799 3.55664,-6.37891 l 0,-52.01367 c 0,-15 0,0 0,-15 l 0,-44.38672 c 12.972,-12.679 20.35157,-30.071 20.35157,-48.25 0,-37.22 -30.28,-67.5 -67.5,-67.5 z m 0,15 c 28.949,0 52.5,23.551 52.5,52.5 0,14.381 -5.95482,28.12421 -16.38282,38.03321 -1.05,0.562 -1.948,1.36784 -2.625,2.33984 -9.411,7.825 -21.23818,12.12695 -33.49218,12.12695 -13.013,0 -25.50679,-4.81754 -35.17579,-13.56054 -11.009,-9.967 -17.32421,-24.16046 -17.32421,-38.93946 0,-28.949 23.551,-52.5 52.5,-52.5 z m -32.85157,111.44922 c 9.971,5.571 21.24957,8.55078 32.85157,8.55078 11.314,0 22.34643,-2.84396 32.14843,-8.16796 l 0,39.83984 c 0,1.93359 0,0 0,1.93359 l 0,46.40821 -29.14453,-14.57227 c -2.111,-1.056 -4.59798,-1.056 -6.70898,0 l -29.14649,14.57227 0,-46.40039 c 0,-1.9336 0,0 0,-1.9336 z"
       id="path4155"
       inkscape:connector-curvature="0"
       sodipodi:nodetypes="sscccsscccscscccssssccscsscscccccccccc" /></g><g
     id="g19" /><g
     id="g21" /><g
     id="g23" /><g
     id="g25" /><g
     id="g27" /><g
     id="g29" /><g
     id="g31" /><g
     id="g33" /><g
     id="g35" /><g
     id="g37" /><g
     id="g39" /><g
     id="g41" /><g
     id="g43" /><g
     id="g45" /><g
     id="g47" /></svg>