<?xml version="1.0" encoding="UTF-8" standalone="no"?>
<!-- Generator: Adobe Illustrator 16.0.0, SVG Export Plug-In . SVG Version: 6.00 Build 0)  -->

<svg
   xmlns:dc="http://purl.org/dc/elements/1.1/"
   xmlns:cc="http://creativecommons.org/ns#"
   xmlns:rdf="http://www.w3.org/1999/02/22-rdf-syntax-ns#"
   xmlns:svg="http://www.w3.org/2000/svg"
   xmlns="http://www.w3.org/2000/svg"
   xmlns:sodipodi="http://sodipodi.sourceforge.net/DTD/sodipodi-0.dtd"
   xmlns:inkscape="http://www.inkscape.org/namespaces/inkscape"
   version="1.1"
   id="Capa_1"
   x="0px"
   y="0px"
   width="512px"
   height="512px"
   viewBox="0 0 430.118 430.118"
   style="enable-background:new 0 0 430.118 430.118;"
   xml:space="preserve"
   inkscape:version="0.91 r13725"
   sodipodi:docname="icon-vimeo-white.svg"><metadata
     id="metadata40"><rdf:RDF><cc:Work
         rdf:about=""><dc:format>image/svg+xml</dc:format><dc:type
           rdf:resource="http://purl.org/dc/dcmitype/StillImage" /><dc:title></dc:title></cc:Work></rdf:RDF></metadata><defs
     id="defs38" /><sodipodi:namedview
     pagecolor="#ffffff"
     bordercolor="#666666"
     borderopacity="1"
     objecttolerance="10"
     gridtolerance="10"
     guidetolerance="10"
     inkscape:pageopacity="0"
     inkscape:pageshadow="2"
     inkscape:window-width="832"
     inkscape:window-height="480"
     id="namedview36"
     showgrid="false"
     inkscape:zoom="0.4609375"
     inkscape:cx="256"
     inkscape:cy="256"
     inkscape:window-x="0"
     inkscape:window-y="23"
     inkscape:window-maximized="0"
     inkscape:current-layer="Capa_1" /><g
     id="g3"
     style="fill:#ffffff;fill-opacity:1"><path
       id="Vimeo"
       d="M367.243,28.754c-59.795-1.951-100.259,31.591-121.447,100.664c10.912-4.494,21.516-6.762,31.858-6.762   c21.804,0,31.455,12.237,28.879,36.776c-1.278,14.86-10.911,36.482-28.879,64.858c-18.039,28.423-31.513,42.61-40.464,42.61   c-11.621,0-22.199-21.958-31.857-65.82c-3.239-12.918-9.031-45.812-17.324-98.765c-7.775-49.046-28.32-71.962-61.727-68.741   C112.15,34.873,90.98,47.815,62.726,72.308C42.113,91.032,21.228,109.761,0,128.471l20.225,26.112   c19.303-13.562,30.595-20.311,33.731-20.311c14.802,0,28.625,23.219,41.488,69.651c11.53,42.644,23.158,85.23,34.744,127.812   c17.256,46.466,38.529,69.708,63.552,69.708c40.473,0,90.028-38.065,148.469-114.223c56.537-72.909,85.725-130.352,87.694-172.341   C432.498,58.764,411.613,30.028,367.243,28.754z"
       fill="#a3a3a3"
       style="fill:#ffffff;fill-opacity:1" /></g><g
     id="g6" /><g
     id="g8" /><g
     id="g10" /><g
     id="g12" /><g
     id="g14" /><g
     id="g16" /><g
     id="g18" /><g
     id="g20" /><g
     id="g22" /><g
     id="g24" /><g
     id="g26" /><g
     id="g28" /><g
     id="g30" /><g
     id="g32" /><g
     id="g34" /></svg>