<?xml version="1.0" encoding="utf-8"?>
<!-- Generator: Adobe Illustrator 19.2.0, SVG Export Plug-In . SVG Version: 6.00 Build 0)  -->
<svg version="1.1" id="Livello_1" xmlns="http://www.w3.org/2000/svg" xmlns:xlink="http://www.w3.org/1999/xlink" x="0px" y="0px"
	 viewBox="0 0 512 512" style="enable-background:new 0 0 512 512;" xml:space="preserve">
<style type="text/css">
	.st0{fill:#FFFFFF;}
</style>
<g>
	<path class="st0" d="M426.9,178.1c19.2-11.5,32.2-32.3,32.2-56.4c0-36.3-29.3-65.8-65.3-65.8c-36,0-65.3,29.5-65.3,65.8
		c0,24.4,13.4,45.4,32.9,56.8c-6.3,2.1-12.4,4.8-18.2,8.2c-8.7-40.7-44.7-71.3-87.6-71.3c-42.4,0-78,29.9-87.2,70
		c-5.4-2.9-11-5.3-16.8-7.2c19.2-11.5,32.2-32.3,32.2-56.4c0-36.3-29.3-65.8-65.3-65.8s-65.3,29.5-65.3,65.8
		c0,24.4,13.5,45.6,33.1,56.9C29.5,198,5.2,264.8,0.3,302.9c-0.6,4.6,0.8,9.2,3.9,12.7c3,3.5,7.4,5.5,12,5.5h142.1
		C100.2,363.8,87.1,436,86.9,437c-0.8,4.7,0.5,9.5,3.6,13.1c3,3.6,7.5,5.7,12.2,5.7h305.9c0.1,0,0.2,0,0.3,0c8.9,0,16-7.2,16-16.2
		c0-2.1-0.4-4.2-1.2-6c-3-15.5-17.9-75.3-67.6-112.5h140c4.5,0,8.9-1.9,11.9-5.4c3-3.4,4.5-8,4-12.5
		C508,264.7,484.8,196.8,426.9,178.1L426.9,178.1z M393.8,88.2c18.3,0,33.3,15,33.3,33.5c0,18.5-14.9,33.5-33.3,33.5
		s-33.2-15-33.2-33.5C360.6,103.2,375.5,88.2,393.8,88.2z M255.7,147.6c31.8,0,57.6,26,57.6,58.1s-25.8,58.1-57.6,58.1
		c-31.7,0-57.6-26-57.6-58.1S224,147.6,255.7,147.6z M118.6,88.2c18.3,0,33.2,15,33.2,33.5c0,18.5-14.9,33.5-33.2,33.5
		c-18.3,0-33.2-15-33.2-33.5C85.4,103.2,100.3,88.2,118.6,88.2z M119.9,205.4c18,0,33,5.5,45.9,16.8c0.6,0.5,1.4,0.8,2.1,1.2
		c5.8,29.6,26,54,52.8,65.5H36C43.8,259.6,65.7,205.4,119.9,205.4L119.9,205.4z M388.4,423.6h-265c11-33.8,44.2-100.8,134.1-100.8
		C347.1,322.7,378.4,390,388.4,423.6z M282.3,292c0.1,0,0.2-0.1,0.3-0.1c-0.1,0-0.1,0.1-0.2,0.1C282.4,292,282.4,292,282.3,292z
		 M291.4,288.8c-0.5,0-0.9,0.2-1.4,0.3c26.9-11.3,47.1-35.3,53.3-64.6c2.2-0.6,4.3-1.5,6.1-3.1c13.1-10.9,28-16.1,45.6-16.1
		c54.7,0,74.9,54.3,81.9,83.5L291.4,288.8L291.4,288.8z"/>
</g>
</svg>
