<?xml version="1.0" encoding="iso-8859-1"?>
<svg xmlns="http://www.w3.org/2000/svg" xmlns:xlink="http://www.w3.org/1999/xlink" version="1.1" viewBox="0 0 463 463" enable-background="new 0 0 463 463" width="512px" height="512px">
  <g>
    <g>
      <path d="M395.195,67.805C351.471,24.08,293.336,0,231.5,0S111.529,24.08,67.805,67.805S0,169.664,0,231.5    s24.08,119.971,67.805,163.695S169.664,463,231.5,463s119.971-24.08,163.695-67.805S463,293.336,463,231.5    S438.92,111.529,395.195,67.805z M384.589,384.589C343.697,425.48,289.329,448,231.5,448s-112.197-22.52-153.089-63.411    C37.52,343.697,15,289.329,15,231.5S37.52,119.303,78.411,78.411C119.303,37.52,173.671,15,231.5,15s112.197,22.52,153.089,63.411    C425.48,119.303,448,173.671,448,231.5S425.48,343.697,384.589,384.589z" fill="#f1f1f1"/>
      <path d="M231.5,32C121.495,32,32,121.495,32,231.5S121.495,431,231.5,431S431,341.505,431,231.5S341.505,32,231.5,32z     M239,415.835V383.5c0-4.142-3.358-7.5-7.5-7.5s-7.5,3.358-7.5,7.5v32.335C128.22,411.985,51.015,334.78,47.165,239H79.5    c4.142,0,7.5-3.358,7.5-7.5s-3.358-7.5-7.5-7.5H47.165C51.015,128.22,128.22,51.015,224,47.165V79.5c0,4.142,3.358,7.5,7.5,7.5    s7.5-3.358,7.5-7.5V47.165C334.78,51.015,411.985,128.22,415.835,224H383.5c-4.142,0-7.5,3.358-7.5,7.5s3.358,7.5,7.5,7.5h32.335    C411.985,334.78,334.78,411.985,239,415.835z" fill="#f1f1f1"/>
      <path d="m332.454,120.646l-144,64c-1.697,0.754-3.054,2.111-3.808,3.808l-64,144c-1.26,2.835-0.644,6.155 1.55,8.349 1.437,1.437 3.355,2.197 5.305,2.197 1.028,0 2.065-0.211 3.044-0.646l144-64c1.697-0.754 3.054-2.111 3.808-3.808l64-144c1.26-2.835 0.644-6.155-1.55-8.349-2.194-2.195-5.514-2.811-8.349-1.551zm-138.535,83.879l10.65,10.65c-2.898,4.764-4.569,10.353-4.569,16.325 0,17.369 14.131,31.5 31.5,31.5 5.972,0 11.561-1.671 16.325-4.569l10.65,10.65-116.202,51.645 51.646-116.201zm37.581,43.475c-9.098,0-16.5-7.402-16.5-16.5s7.402-16.5 16.5-16.5 16.5,7.402 16.5,16.5-7.402,16.5-16.5,16.5zm37.581,10.475l-10.65-10.65c2.898-4.764 4.569-10.353 4.569-16.325 0-17.369-14.131-31.5-31.5-31.5-5.972,0-11.561,1.671-16.325,4.569l-10.65-10.65 116.202-51.645-51.646,116.201z" fill="#f1f1f1"/>
    </g>
  </g>
</svg>
