<?xml version="1.0" encoding="iso-8859-1"?>
<svg xmlns="http://www.w3.org/2000/svg" xmlns:xlink="http://www.w3.org/1999/xlink" version="1.1" viewBox="0 0 409.223 409.223" enable-background="new 0 0 409.223 409.223" width="512px" height="512px">
  <path d="m204.612,0c-79.165,0-143.57,64.405-143.57,143.569 0,31.352 9.927,61.139 28.707,86.141 16.989,22.617 40.706,39.975 67.25,49.332 2.35,7.811 6.572,14.888 12.405,20.722 6.983,6.982 15.704,11.629 25.208,13.544v54.127c0,5.522 4.477,10 10,10s10-4.478 10-10v-54.127c9.504-1.916 18.225-6.562 25.208-13.545 5.832-5.833 10.054-12.909 12.404-20.721 26.543-9.356 50.26-26.715 67.249-49.332 18.78-25.002 28.708-54.789 28.708-86.141 5.68434e-14-79.164-64.405-143.569-143.569-143.569zm36.246,261.733c-3.615,1.107-6.297,4.16-6.93,7.888-1.036,6.105-3.89,11.639-8.251,16-5.571,5.571-13.01,8.65-20.957,8.679-0.036-0.001-0.072-0.001-0.108-0.001s-0.072,0-0.108,0.001c-7.947-0.028-15.387-3.107-20.958-8.679-4.361-4.362-7.214-9.895-8.25-15.999-0.632-3.729-3.314-6.781-6.93-7.889-52.231-16.001-87.324-63.487-87.324-118.164 1.42109e-14-68.136 55.433-123.569 123.57-123.569 68.136,0 123.569,55.433 123.569,123.569 0,54.677-35.093,102.163-87.323,118.164zm22.405,113.163c0,19.569-25.214,34.326-58.651,34.326-33.438,0-58.652-14.757-58.652-34.326 0-11.189 8.268-21.213 22.683-27.502 5.064-2.208 10.956,0.106 13.165,5.168 2.208,5.062-0.105,10.956-5.167,13.164-7.338,3.201-10.68,6.997-10.68,9.17 0,5.051 14.675,14.326 38.652,14.326 23.977,0 38.651-9.275 38.651-14.326 0-2.172-3.342-5.967-10.679-9.169-5.062-2.208-7.375-8.103-5.166-13.164 2.208-5.063 8.102-7.376 13.165-5.166 14.412,6.29 22.679,16.313 22.679,27.499zm-63.452-278.19v56.843c0,5.522-4.477,10-10,10h-19.123v46.841c0,5.522-4.477,10-10,10s-10-4.478-10-10v-46.841h-19.125c-5.523,0-10-4.478-10-10v-56.843c0-5.522 4.477-10 10-10s10,4.478 10,10v46.843h9.125v-46.843c0-5.522 4.477-10 10-10s10,4.478 10,10v46.843h9.123v-46.843c0-5.522 4.477-10 10-10s10,4.478 10,10zm77.851-10h-49c-5.523,0-10,4.478-10,10v113.684c0,5.522 4.477,10 10,10s10-4.478 10-10v-23.06h39c5.523,0 10-4.478 10-10v-80.624c0-5.522-4.477-10-10-10zm-10,80.624h-29v-60.624h29v60.624z" fill="#A3A3A3"/>
</svg>
