<?xml version="1.0" encoding="iso-8859-1"?>
<svg xmlns="http://www.w3.org/2000/svg" xmlns:xlink="http://www.w3.org/1999/xlink" version="1.1" viewBox="0 0 409.986 409.986" enable-background="new 0 0 409.986 409.986" width="512px" height="512px">
  <path d="m260.055,98.739c0-16.46 13.392-29.852 29.853-29.852h37.272c5.433,0 9.852-4.42 9.852-9.853 0-5.523 4.478-10 10-10s10,4.477 10,10c0,16.461-13.392,29.853-29.852,29.853h-37.272c-5.433,0-9.853,4.419-9.853,9.852 0,5.433 4.42,9.853 9.853,9.853h90.226c16.461,0 29.854,13.392 29.854,29.852 0,16.462-13.393,29.855-29.854,29.855h-69.557c-5.434,0-9.854,4.419-9.854,9.852v19.854c0,5.523-4.478,10-10,10s-10-4.477-10-10v-19.854c0-16.46 13.393-29.852 29.854-29.852h69.557c5.434,0 9.854-4.421 9.854-9.855 0-5.433-4.42-9.852-9.854-9.852h-90.226c-16.462,0-29.853-13.392-29.853-29.853zm148.024,252.21c0,5.523-4.478,10-10,10h-22.921c-0.088,0.002-0.176,0.003-0.265,0.003s-0.177-0.001-0.265-0.003h-340.037c-0.176,0.005-0.354,0.005-0.529,0h-24.062c-5.522,0-10-4.477-10-10s4.478-10 10-10h14.326v-30.886c0-43.562 17.076-84.629 48.084-115.637 26.754-26.755 61-43.138 97.874-47.128v-15.283c0-18.927 15.398-34.326 34.325-34.326 18.928,0 34.327,15.398 34.327,34.326v15.295c6.224,0.68 12.402,1.717 18.489,3.105 5.384,1.228 8.754,6.588 7.526,11.973-1.229,5.384-6.585,8.755-11.974,7.526-10.394-2.37-21.095-3.572-31.805-3.572h-33.128c-79.247,0-143.72,64.473-143.72,143.721v30.886h320.567v-30.886c0-39.169-15.64-75.847-44.038-103.275-3.973-3.837-4.082-10.167-0.245-14.14s10.166-4.083 14.14-0.246c32.336,31.232 50.144,73.018 50.144,117.661v30.886h13.186c5.524,0 10.001,4.477 10.001,10zm-217.795-204.607h28.652v-14.327c0-7.899-6.426-14.326-14.325-14.326-7.9,0-14.327,6.426-14.327,14.326v14.327zm-127.018,162.074c-0.383,5.51 3.773,10.286 9.283,10.668 0.236,0.016 0.47,0.024 0.703,0.024 5.207,0 9.6-4.035 9.965-9.308 4.083-58.833 51.737-104.919 108.491-104.919 5.522,0 10-4.477 10-10s-4.478-10-10-10c-67.218-2.84217e-14-123.637,54.263-128.442,123.535z" fill="#A3A3A3"/>
</svg>
