<?xml version="1.0" encoding="iso-8859-1"?>
<svg xmlns="http://www.w3.org/2000/svg" xmlns:xlink="http://www.w3.org/1999/xlink" version="1.1" viewBox="0 0 410.354 410.354" enable-background="new 0 0 410.354 410.354" width="512px" height="512px">
  <path d="m107.586,289.523h-85.307c-5.522,0-10-4.477-10-10s4.478-10 10-10h85.307c5.522,0 10,4.477 10,10s-4.478,10-10,10zm-78.578-268.957h72.785c5.386,2.4869e-14 9.768,4.381 9.768,9.767 0,5.388-4.382,9.771-9.768,9.771h-46.19c-16.413,0-29.767,13.353-29.767,29.767 0,16.416 13.354,29.771 29.767,29.771h31.936c5.386,0 9.768,4.383 9.768,9.771v15.169c0,5.523 4.478,10 10,10s10-4.477 10-10v-15.169c0-16.416-13.354-29.771-29.768-29.771h-31.936c-5.386,0-9.767-4.383-9.767-9.771 0-5.385 4.381-9.767 9.767-9.767h46.19c16.414,0 29.768-13.355 29.768-29.771 0-16.414-13.354-29.767-29.768-29.767h-72.785c-5.522,0-10,4.477-10,10s4.477,10 10,10zm381.346,135.959v243.262c0,5.523-4.478,10-10,10h-342.834c-5.522,0-10-4.477-10-10v-73.147h-14.358c-5.522,0-10-4.477-10-10s4.478-10 10-10h113.624c5.522,0 10,4.477 10,10s-4.478,10-10,10h-79.266v63.147h322.834v-223.262h-322.834v65.881h99.747c5.522,0 10,4.477 10,10s-4.478,10-10,10h-157.267c-5.522,0-10-4.477-10-10s4.478-10 10-10h37.52v-75.881c0-5.523 4.478-10 10-10h88.438v-87.306c0-32.341 26.311-58.653 58.651-58.653h48.656c32.341,0 58.652,26.312 58.652,58.653v87.307h88.437c5.522-0.001 10,4.476 10,9.999zm-118.437-97.306c0-21.313-17.339-38.653-38.652-38.653h-48.656c-21.313,0-38.651,17.34-38.651,38.653v87.307h125.96v-87.307zm-71.095,292.673l-48.212-57.681c-2.49-2.979-3.03-7.13-1.386-10.648 1.644-3.518 5.176-5.765 9.059-5.765h10.187c25.315-46.415 47.999-76.965 74.955-76.965 26.955,0 49.639,30.55 74.955,76.965h10.188c3.883,0 7.415,2.248 9.059,5.765 1.645,3.518 1.104,7.669-1.386,10.648l-48.212,57.681c-1.9,2.273-4.71,3.587-7.673,3.587h-73.86c-2.964,0-5.773-1.313-7.674-3.587zm-7.466-74.094h104.137c-15.724-27.662-35.588-56.965-52.068-56.965s-36.346,29.304-52.069,56.965zm-11.681,20l31.495,37.681h64.511l31.495-37.681h-127.501z" fill="#A3A3A3"/>
</svg>
