<?xml version="1.0" encoding="iso-8859-1"?>
<svg xmlns="http://www.w3.org/2000/svg" xmlns:xlink="http://www.w3.org/1999/xlink" version="1.1" viewBox="0 0 409.222 409.222" enable-background="new 0 0 409.222 409.222" width="512px" height="512px">
  <path d="m237.621,157.775v-131.265c0-5.523 4.477-10 10-10s10,4.477 10,10v131.265c0,5.523-4.477,10-10,10s-10-4.477-10-10zm98.621,81.853v133.123c0,5.523-4.477,10-10,10h-68.621v16.471c0,5.523-4.477,10-10,10s-10-4.477-10-10v-16.471h-63.051v16.471c0,5.523-4.477,10-10,10s-10-4.477-10-10v-16.471h-71.59c-5.523,0-10-4.477-10-10v-133.123c0-5.523 4.477-10 10-10h37.178c5.523,0 10,4.477 10,10s-4.477,10-10,10h-27.178v15.127h61.59v-244.755h-10.32l-41.428,145.21 32.33,32.329c3.906,3.905 3.906,10.237 0,14.142-3.905,3.905-10.237,3.906-14.142,0l-36.489-36.488c-2.567-2.567-3.542-6.324-2.545-9.815l45.111-158.12c1.225-4.294 5.15-7.256 9.616-7.256l27.867-.002c2.652,0 5.196,1.053 7.071,2.929s2.929,4.419 2.929,7.071v254.755h63.051v-60.787h-12c-13.503,0-24.489-10.985-24.489-24.488v-169.48c0-5.523 4.477-10 10-10s10,4.477 10,10v169.48c0,2.433 2.056,4.488 4.489,4.488h44.002c2.433,0 4.489-2.055 4.489-4.488v-169.48c0-5.523 4.477-10 10-10s10,4.477 10,10v169.48c0,13.503-10.986,24.488-24.489,24.488h-12.001v60.787h58.621v-15.127h-27.177c-5.523,0-10-4.477-10-10s4.477-10 10-10h37.177c5.522,0 9.999,4.477 9.999,10zm-20,45.127h-223.262v77.996h223.262v-77.996z" fill="#A3A3A3"/>
</svg>
