<?xml version="1.0" encoding="iso-8859-1"?>
<svg xmlns="http://www.w3.org/2000/svg" xmlns:xlink="http://www.w3.org/1999/xlink" version="1.1" viewBox="0 0 409.223 409.223" enable-background="new 0 0 409.223 409.223" width="512px" height="512px">
  <path d="m214.614,289.788c0,5.522-4.477,10-10,10-35.045,0-65.562,28.375-70.983,66.002-0.718,4.983-4.995,8.575-9.885,8.575-0.475,0-0.955-0.033-1.439-0.104-5.466-0.787-9.259-5.857-8.472-11.323 3.278-22.75 14.113-43.69 30.51-58.964 16.744-15.597 38.147-24.187 60.269-24.187 5.523,0.001 10,4.479 10,10.001zm111.645-140.606c3.525,4.252 9.83,4.842 14.081,1.319 4.253-3.524 4.843-9.828 1.32-14.081-15.57-18.79-36.061-34.355-59.257-45.014-24.214-11.126-50.387-16.768-77.791-16.768-27.405,0-53.578,5.642-77.792,16.768-23.197,10.658-43.688,26.225-59.257,45.015-3.523,4.252-2.933,10.557 1.32,14.08 1.866,1.546 4.127,2.3 6.375,2.3 2.875,0 5.728-1.233 7.706-3.62 28.298-34.152 73.775-54.542 121.649-54.542 47.871-1.42109e-14 93.346,20.389 121.646,54.543zm74.894-66.34c-48.574-52.648-120.211-82.842-196.541-82.842-76.327,0-147.964,30.195-196.543,82.844-3.745,4.059-3.491,10.386 0.568,14.131 1.923,1.773 4.354,2.65 6.779,2.65 2.694,0 5.381-1.082 7.352-3.219 44.804-48.557 111.084-76.406 181.844-76.406 70.763,0 137.042,27.849 181.842,76.404 3.745,4.061 10.072,4.313 14.131,0.568 4.059-3.744 4.313-10.071 0.568-14.13zm-44.085,316.379c0,5.522-4.477,10-10,10h-24.73c-0.067,0.001-0.134,0.002-0.202,0.002s-0.134-0.001-0.202-0.002h-234.644c-0.135,0.002-0.269,0.002-0.403,0h-24.732c-5.523,0-10-4.478-10-10s4.477-10 10-10h14.933v-16.448c0-60.047 41.722-110.534 97.695-124.001v-9.537c0-16.447 13.381-29.828 29.829-29.828 16.448,0 29.83,13.381 29.83,29.828v9.537c55.974,13.467 97.696,63.954 97.696,124.001v16.448h14.932c5.521,0 9.998,4.477 9.998,10zm-162.285-153.597c3.242-0.248 6.524-0.375 9.829-0.375 3.309,0 6.583,0.126 9.83,0.375v-6.39c0-5.419-4.409-9.828-9.829-9.828-5.42,0-9.83,4.409-9.83,9.828v6.39zm117.354,127.148c0-52.898-38.393-96.996-88.779-105.888-0.413-0.045-0.817-0.114-1.212-0.207-5.706-0.939-11.564-1.429-17.531-1.429-5.971,0-11.833,0.49-17.542,1.431-0.391,0.091-0.79,0.159-1.197,0.204-50.388,8.892-88.787,52.99-88.787,105.889v16.448h215.049v-16.448zm-107.526-221.882c-32.381,0-61.458,16.234-75.883,42.369-2.669,4.835-0.913,10.918 3.922,13.587 4.834,2.668 10.918,0.913 13.587-3.923 10.741-19.459 33.654-32.033 58.373-32.033 24.718,0 47.629,12.574 58.369,32.033 1.823,3.304 5.24,5.17 8.764,5.17 1.634,0 3.291-0.401 4.823-1.247 4.835-2.669 6.592-8.752 3.923-13.587-14.423-26.134-43.498-42.369-75.878-42.369z" fill="#A3A3A3"/>
</svg>
